<svg xmlns="http://www.w3.org/2000/svg" xmlns:xlink="http://www.w3.org/1999/xlink" width="221.529" height="163.733" viewBox="0 0 221.529 163.733">
  <defs>
    <clipPath id="clip-path">
      <rect id="Rectangle_3" data-name="Rectangle 3" width="221.529" height="163.733" fill="none"/>
    </clipPath>
  </defs>
  <g id="Group_4" data-name="Group 4" transform="translate(0 0)">
    <g id="Group_3" data-name="Group 3" transform="translate(0 0)" clip-path="url(#clip-path)">
      <path id="Path_2" data-name="Path 2" d="M61.54,43.754A80.227,80.227,0,0,0,93.88,68.137c-1.976.267-3.853.637-5.684-.428-4.816-2.8-9.793-5.345-14.479-8.347C66.282,54.6,60.754,47.9,55.827,40.678q-1.237-1.814-2.452-3.646C51.8,34.674,51.714,34.5,49.3,35.749c-6.4,3.322-12.714,6.791-19.025,10.274a1.948,1.948,0,0,0-.815,1.616A3.618,3.618,0,0,0,30.685,49.4c.341.309.951.3,1.428.476a5.547,5.547,0,0,1,3.672,3.475A31.646,31.646,0,0,0,45.842,66.7a6.4,6.4,0,0,1,1.7,1.729c-3.13,0-6.258.028-9.385-.034a2.118,2.118,0,0,1-1.241-.734,26.631,26.631,0,0,1-5.84-10.483l4.49.345.237-.279c-2.7-2.339-5.686-4.424-8.015-7.085-2.386-2.729-4.128-6.019-6.23-9.183-.313.3-.676.62-1.017.966C15.952,46.6,11.3,51.2,6.825,55.969,5.019,57.894,3.038,58.334.416,57.813c7.317-7.085,14.539-14.076,21.826-21.129l5.388,6.772c1.394-.684,2.7-1.313,4-1.962,6.192-3.1,12.4-6.179,18.562-9.334a2.522,2.522,0,0,1,3.136.4c11.846,9.183,23.7,18.374,36.8,25.756,3.767,2.123,7.791,3.789,11.7,5.658a22.211,22.211,0,0,1,2.819,1.471A19.241,19.241,0,0,1,95.4,63.858c-6.262-3.068-12.549-6.132-18.57-9.635-4.8-2.793-9.23-6.232-13.82-9.39-.5-.343-.979-.719-1.467-1.079" transform="translate(0.367 28.077)" fill="#fff"/>
      <path id="Path_3" data-name="Path 3" d="M144.1,47.206C137.165,23.082,115.8,4.565,89.144,3.586c-14.571-.537-27.871,3.5-39.315,12.726a61.1,61.1,0,0,0-21.7,35.439L24.8,50.756a63.461,63.461,0,0,1,7.842-20.007C42.328,15.08,55.905,4.464,74.2,1.211c24.57-4.371,45.264,3.1,61.512,22.225A57.307,57.307,0,0,1,146.347,42.9c1.047,3.181,1.025,3.222-2.251,4.309" transform="translate(21.908 0)" fill="#fff"/>
      <path id="Path_4" data-name="Path 4" d="M122.311,57.3H0c3.588-1.947,6.676-4.392,11.221-4.366,32.361.19,64.726.072,97.09.077a11.786,11.786,0,0,1,3.32.478c3.6,1.07,7.164,2.245,10.741,3.379-.019.143-.04.288-.06.431" transform="translate(0 46.758)" fill="#fff"/>
      <path id="Path_5" data-name="Path 5" d="M95.652,66.934C96.893,63.276,98.095,59.74,99.3,56.2l-.258-.169c-1,1.352-2.038,2.682-3,4.06a17,17,0,0,1-5.746,5.6,12.936,12.936,0,0,0-2.746,2.458,19.67,19.67,0,0,0-1.6,1.962c-1.874,2.467-4.335,3.185-7.579,2.411,2.876-3.512,4.123-8.087,8.283-10.5,1.994-1.156,3.914-2.446,5.825-3.738a3.484,3.484,0,0,0,1.151-1.354q6.579-14.249,13.1-28.523c.185-.4.4-.789.783-1.542l21.815,20.607c-.52.949-.947,1.727-1.527,2.782L108.566,31.733c-.463,1.454-.855,2.6-1.177,3.759-.077.281-.023.817.147.91,1.893,1.017.974,2.486.652,3.842-.154.652-.416,1.279-.676,2.06,2.335,1.465,1.644,3.59.983,5.65-.6,1.87-1.33,3.7-1.957,5.415l7.234-2.812c.119.173.237.347.354.522-.492.625-.855,1.486-1.5,1.832-2.354,1.271-3.708,3.4-5.117,5.509-.439.655-.847,1.33-1.267,2-2.362,3.767-5.68,5.853-10.592,6.518" transform="translate(69.221 23.732)" fill="#fff"/>
      <path id="Path_6" data-name="Path 6" d="M60.307,72.6c.889-.557,1.78-1.111,2.669-1.672C69.833,66.6,76.711,62.3,83.527,57.909a11.283,11.283,0,0,0,2.842-2.825c1.9-2.586,3.754-5.211,5.441-7.936a27.135,27.135,0,0,1,8.168-8.386c5.981-4,11.839-8.187,17.926-12.149-.857,1.97-.97,4.072-2.94,5.656-5.206,4.185-10.667,8.172-14.345,13.95a4.452,4.452,0,0,0-.742,1.814c.889-.748,1.776-1.5,2.688-2.264,1.166,2.9.514,5.528-1.7,7.247-1.736,1.347-3.488,2.676-5.151,4.109a6.412,6.412,0,0,0-1.748,2.213,8.472,8.472,0,0,1-3.4,3.8c-5.648,3.742-11.33,7.518-18.05,8.942-3.917.831-8,.863-12.016,1.252-.062-.247-.126-.493-.188-.74" transform="translate(53.271 23.507)" fill="#fff"/>
      <path id="Path_7" data-name="Path 7" d="M70.1,57.326c4.32-2.228,8.371-4.477,13.575-4.413,20.845.258,41.7.049,62.544.011a3.786,3.786,0,0,1,1.738.3,8.835,8.835,0,0,1-1.066.52c-3.2,1.073-6.4,2.149-9.62,3.173a7.816,7.816,0,0,1-2.315.388q-31.945.085-63.894.119a8.714,8.714,0,0,1-.962-.094" transform="translate(61.922 46.739)" fill="#fff"/>
      <path id="Path_8" data-name="Path 8" d="M113.516,55.6c1.3-.742,2.6-1.484,3.964-2.264-2.6,6.588-9.336,10.569-19.694,8.869,4.509-2.247,6.983-6.094,9.765-9.688.637-.823,2.07-.989,3.038-1.608a7.539,7.539,0,0,0,1.784-1.729c.925-1.183,1.748-2.446,2.629-3.665,1.68-2.324,3.369-4.639,5.087-7,.3.226.529.377.731.557,4.646,4.179,9.289,8.362,14.332,12.9-2.156-.043-3.812.552-5.349-.96-2.8-2.752-5.731-5.371-8.771-8.2-2.727,4.2-5.373,8.273-8.021,12.347.169.147.337.294.5.441" transform="translate(86.378 34.017)" fill="#fff"/>
      <path id="Path_9" data-name="Path 9" d="M37.929,54.511h1.712l.226-.343A11.358,11.358,0,0,0,37.75,52.6c-2.576-1.122-5.238-2.051-7.81-3.177-1.97-.863-3.857-1.912-5.78-2.878.066-.147.13-.294.2-.441,1.311.215,2.62.431,3.507.578-.235-2.518-.469-5.013-.708-7.569,4.8,4.207,9.23,8.5,14.091,12.223,4.88,3.742,10.191,6.921,15.36,10.379-6.145,1.5-14.75-1.776-18.677-7.2" transform="translate(21.341 34.546)" fill="#fff"/>
      <path id="Path_10" data-name="Path 10" d="M92.42,43.419l-1.488-1.4c-.733.578-1.49,1.141-2.209,1.748-8.324,7.029-17.617,11.989-28.459,14-3.556.659-6.32-.337-9.471-2.5,19.315.267,33.252-9.535,45.656-22.6-.857,3.782-1.411,7.577-4.028,10.758" transform="translate(44.867 28.851)" fill="#fff"/>
      <path id="Path_11" data-name="Path 11" d="M43.161,29.66a15.924,15.924,0,0,1-3.081,1.083A1.834,1.834,0,0,0,38.337,32.6a14.028,14.028,0,0,1-.97,3.829c-.23-1.134-.5-2.262-.676-3.405a2.284,2.284,0,0,0-1.806-2.1,18.206,18.206,0,0,1-2.9-1.392c.034-.169.07-.337.105-.507.846-.2,1.687-.424,2.539-.593a2.279,2.279,0,0,0,2.091-2.243c.134-1.6.394-3.188.6-4.782l.471-.019a39.466,39.466,0,0,1,.5,4.36,2.55,2.55,0,0,0,2.465,2.821,20.19,20.19,0,0,1,2.356.678l.051.412" transform="translate(28.252 18.893)" fill="#fff"/>
      <path id="Path_12" data-name="Path 12" d="M82.852,34.319c.217-3.8-1.1-6.405-5.554-6.563.137-.2.277-.394.416-.589.881-.264,1.748-.6,2.646-.774,1.179-.234,1.876-.689,1.938-2.062a39.772,39.772,0,0,1,.676-4.433c.151-.006.3-.011.454-.019.175,1.053.4,2.094.516,3.151.343,3.04.328,3.036,3.3,3.689a3.986,3.986,0,0,1,1.821.836,23.647,23.647,0,0,1-3.064,1,2.329,2.329,0,0,0-2.025,2.456c-.1,1.085-.36,2.155-.55,3.23l-.571.079" transform="translate(68.28 17.559)" fill="#fff"/>
      <path id="Path_13" data-name="Path 13" d="M40.1,12.933c2.13.252,3.989.426,5.835.7,5.051.75,10.106,1.5,15.142,2.343,1.535.256,3.158.606,3.735,2.324L60,20.773c.03.126.062.25.092.375a25.436,25.436,0,0,1,2.669.691,14.209,14.209,0,0,1,3.458,1.552c1.428,1.03,2.369,2.469,1.821,4.4a19.606,19.606,0,0,1-1.332,4.187c-.761,1.371-1.936,1.35-3.083.264,1.446-1.5,2.819-3.047,2.544-5.584-2.663,1.544-5.04,3.689-8.26,2.539l-.153-.386a6.1,6.1,0,0,0,1.46-.795c.61-.588,1.512-1.316,1.5-1.977a2.75,2.75,0,0,0-1.554-1.9,7.682,7.682,0,0,0-3.433-.552c-2.518.183-4.976.418-6.857-1.759-.158-.185-.29-.394-.492-.667a20.684,20.684,0,0,0,2.623-.034c.4-.051,1.015-.407,1.06-.7a1.757,1.757,0,0,0-.433-1.458,4.056,4.056,0,0,0-2.077-.768,12.967,12.967,0,0,1-8.916-4.448,7.118,7.118,0,0,1-.546-.819" transform="translate(35.417 11.424)" fill="#fff"/>
      <path id="Path_14" data-name="Path 14" d="M86.694,13.294c-2.492,2.757-5.332,4.857-9.3,4.738a2.632,2.632,0,0,0-2.416,1.151,1.927,1.927,0,0,0-.435,1.307c.075.292.706.571,1.117.618a25.6,25.6,0,0,0,2.72.028c-1.083,1.446-2.294,2.5-4.091,2.5-1.486,0-2.972-.2-4.46-.249a3.906,3.906,0,0,0-3.279,1.433,1.732,1.732,0,0,0,.363,2.834,11.9,11.9,0,0,0,1.117.62c.311.171.618.35,1.17.665a4.538,4.538,0,0,1-4.371,0,36.559,36.559,0,0,1-3.893-2.226,6.085,6.085,0,0,0,1.635,4.416c.348.4.793,1.305.646,1.46a1.517,1.517,0,0,1-2.179-.017,2.873,2.873,0,0,1-.814-.8c-2.043-3.831-2-7.6,2.64-9.626a37.783,37.783,0,0,1,4.158-1.243l-5.345-2.94a17.984,17.984,0,0,1,3.511-1.727c3.268-.774,6.565-1.454,9.886-1.953,3.825-.574,7.686-.915,11.532-1.356.028.124.058.25.087.375" transform="translate(52.06 11.412)" fill="#fff"/>
      <path id="Path_15" data-name="Path 15" d="M45.331,28.146a3.024,3.024,0,0,1,.446-.109c2.006-.122,1.962-.111,2.411,1.846,1.767,7.71,7.049,11.976,14.3,13.94a20.02,20.02,0,0,0,21.353-8.117,23.153,23.153,0,0,0,2.51-5.94c.6-1.9.687-2.1,2.763-1.52.064,6.6-7.588,17.967-20.741,18.718-12.43.71-22.734-9.464-23.039-18.818" transform="translate(40.042 24.698)" fill="#fff"/>
      <path id="Path_16" data-name="Path 16" d="M71.733,13.364a5.432,5.432,0,0,1-1.782,4.213A44.544,44.544,0,0,0,66.6,21.749c-1.034,1.488-.955,1.544.382,2.565C65.2,26.738,63.42,29.156,61.624,31.6c-1.716-2.542-3.324-4.923-4.993-7.4l1.124-1c-1.467-1.88-2.9-3.823-4.448-5.661a5.918,5.918,0,0,1-1.761-3.959,21.443,21.443,0,0,0,1.49,1.923c1.39,1.412,2.787,1.079,3.32-.819.318-1.138.458-2.326.806-3.509.371,3.654.742,7.309,1.13,11.129,1.58-.863,1.729-2.3,1.929-3.639.469-3.158.857-6.33,1.284-9.5a6.707,6.707,0,0,1,.243-.795c1.4,4.746.311,9.737,2.861,13.972,1.48-3.565.981-7.33,1.593-11.014q.218,1.076.439,2.155a2.771,2.771,0,0,0,.109.5c.412,1,.589,2.307,2.013,2.326,1.251.015,1.912-.951,2.46-1.945.136-.247.254-.5.51-1.011m-9.874,7.36c-.578,1.04-1.186,2.1-1.763,3.179-.443.827-.539,1.648.358,2.254s1.787.981,2.753.056a1.813,1.813,0,0,0,.348-2.416c-.557-1.036-1.136-2.06-1.7-3.074" transform="translate(45.532 7.405)" fill="#fff"/>
      <path id="Path_17" data-name="Path 17" d="M78.684,26.721a3.17,3.17,0,0,1-2.834,1.6c-1.959.021-3.919.026-5.88.04-1.784.011-2.234.3-2.454,1.569-.228,1.322.211,2,1.67,2.576.194.079.38.183.7.337-1.5,1.784-2.957,3.514-4.415,5.245l-.324-.113c0-1.38-.051-2.765.017-4.141a1.861,1.861,0,0,0-1.217-2.087,4.822,4.822,0,0,1-2.94-2.844,9.389,9.389,0,0,1-.2-1.437l4.147,2.774c.168-2.252.309-4.113.446-5.972l.283-.122a3.367,3.367,0,0,1,.672.864,1.91,1.91,0,0,0,2.26,1.326c1.7-.089,3.411-.077,5.115-.011,1.588.06,3.175.247,4.953.394" transform="translate(53.713 21.331)" fill="#fff"/>
      <path id="Path_18" data-name="Path 18" d="M52.149,32.818c.586-.2.908-.3,1.228-.412a1.712,1.712,0,0,0,1.288-2.151c-.2-1.153-.591-1.912-1.923-1.9-2.047.019-4.094-.089-6.14-.032a3.233,3.233,0,0,1-2.765-1.452c3.326-1.013,6.641-.578,9.912-.527,1.034.017,1.716,0,2.1-1.049a6.267,6.267,0,0,1,.772-1.107c.153,1.7.262,3.077.407,4.456.13,1.243.441,1.443,1.548.819.913-.514,1.735-1.194,2.769-1.923a3.674,3.674,0,0,1-1.48,3.211.988.988,0,0,1-.3.232c-2.691.74-2.757,2.795-2.552,5.015.06.657.009,1.326.009,1.989l-.354.156-4.512-5.326" transform="translate(38.724 21.367)" fill="#fff"/>
      <path id="Path_19" data-name="Path 19" d="M57.564,47.358a6.245,6.245,0,0,1-.787-1.866c-.3-4.974-.482-9.953-.812-14.924a8.175,8.175,0,0,0-1-2.337c-.145-.339-.433-.915-.326-1.013,1.582-1.413,2.011-3.3,2.3-5.264.021-.149.115-.286.507-.488a11.407,11.407,0,0,1,.778,2.846c.062,7.243.03,14.487.017,21.73a8.5,8.5,0,0,1-.149,1.121l-.524.2" transform="translate(48.244 18.962)" fill="#fff"/>
      <path id="Path_20" data-name="Path 20" d="M58.528,21.576c.094.394.162.795.29,1.177a12.157,12.157,0,0,0,1,2.736c.78,1.222,2.013,2.241.13,3.578-.326.232-.313,1.034-.341,1.578-.252,5.017-.5,10.034-.695,15.055-.034.883-.348,1.343-1.3,1.429-.021-.4-.055-.77-.057-1.143-.03-7.157-.081-14.315-.058-21.472a16.083,16.083,0,0,1,.573-2.989l.452.049" transform="translate(50.79 19.016)" fill="#fff"/>
      <path id="Path_21" data-name="Path 21" d="M67.867,19.323A16.87,16.87,0,0,1,70.7,28.286c-.512.034-.93.053-1.345.094-.815.079-1.1-.2-1.3-1.089-.5-2.268-1.239-4.479-1.934-6.895l1.744-1.073" transform="translate(58.409 17.069)" fill="#fff"/>
      <path id="Path_22" data-name="Path 22" d="M47.621,28.352c.207-.143.175-.1.139-.1-2.486.337-2.637.234-2.262-2.188a17.325,17.325,0,0,1,2.286-6.637,11.477,11.477,0,0,0,1.132.706c.661.313.757.691.535,1.418-.65,2.139-1.173,4.317-1.831,6.8" transform="translate(40.054 17.162)" fill="#fff"/>
      <path id="Path_23" data-name="Path 23" d="M60.568,36.32c0-1.938-.036-3.763.034-5.582.011-.322.458-.627.7-.94.3.32.834.62.864.964.107,1.222-.024,2.465.066,3.691.085,1.175-.416,1.721-1.667,1.866" transform="translate(53.494 26.322)" fill="#fff"/>
      <path id="Path_24" data-name="Path 24" d="M53.978,29.839v6.234c-1.03-.136-1.576-.612-1.512-1.733.06-1.058.057-2.124.021-3.187-.03-.921.39-1.315,1.492-1.315" transform="translate(46.34 26.358)" fill="#fff"/>
      <path id="Path_25" data-name="Path 25" d="M57.3,16.15c.74.67,1.414,1.241.687,2.1a1.2,1.2,0,0,1-1.181.045c-.849-.836-.019-1.4.493-2.143" transform="translate(49.859 14.266)" fill="#fff"/>
      <path id="Path_26" data-name="Path 26" d="M66.255,78.332c1.872-5.2,3.823-10.381,5.539-15.635.305-.936-.369-2.192-.608-3.382h7.531C73.5,71.25,69.739,83.893,65.544,96.376c-.1.294-.247.573-.5,1.153-.426-1.049-.782-1.832-1.066-2.64-3.646-10.351-7.262-20.713-10.944-31.05a49.622,49.622,0,0,0-2.124-4.529h10.8c.011.028.107.181.081.207-1.718,1.669-1.192,3.467-.49,5.405,1.6,4.428,3.075,8.9,4.6,13.362l.354.049" transform="translate(44.971 52.389)" fill="#fff"/>
      <path id="Path_27" data-name="Path 27" d="M119.222,59.363h7.936c-2.433,6.1-4.885,12.166-7.264,18.265a9.131,9.131,0,0,0-.578,3.023c-.075,2.966-.015,5.936-.032,8.9-.015,2.787-.412,5.674,2.848,7.821H109.988c0-.119-.041-.267.008-.305,1.961-1.593,2.247-3.676,2.4-6.117a44.858,44.858,0,0,0-4.226-22.707c-.686-1.429-1.1-2.989-1.71-4.456s-1.315-2.874-2.019-4.4h8.769c-.145,4.838,2.633,8.918,3.563,13.513.23.032.46.064.689.094,1.07-3.333,2.316-6.626,3.1-10.025.234-1.013-.831-2.326-1.343-3.612" transform="translate(92.257 52.437)" fill="#fff"/>
      <path id="Path_28" data-name="Path 28" d="M26.634,62.239c1.392,0,3.047-.105,4.678.053a3.1,3.1,0,0,1,1.838,1.1c2.808,3.381,5.539,6.825,8.3,10.245a5.541,5.541,0,0,0,1.258,1.211c-.284-4.158,1.017-8.379-.729-12.517H47.6c-.117,1.863-.316,3.625-.324,5.39-.036,7.637-.017,15.272-.017,23.419L31.979,71.72c0,2.13,0,3.8,0,5.467,0,2.584-.09,5.172.026,7.748a42.876,42.876,0,0,0,.729,4.729H25.523c2.049-1.6,1.748-3.567,1.744-5.469-.009-5.771.028-11.541-.041-17.312a41.039,41.039,0,0,0-.591-4.644" transform="translate(22.545 54.948)" fill="#fff"/>
      <path id="Path_29" data-name="Path 29" d="M10.514,92.177c3.486-.286,7.027,1.03,9.71-2.471v7.919H1.084c-.072-.249-.153-.407-.121-.437,1.934-1.729,2.215-3.925,2.181-6.4C3.028,82,3.06,73.212,3.1,64.424c.008-1.964-.175-3.746-2.021-5.07H12.762c-3.124,2.3-2.219,5.482-2.245,8.4-.066,7.579-.011,15.159,0,22.737v1.689" transform="translate(0.845 52.43)" fill="#fff"/>
      <path id="Path_30" data-name="Path 30" d="M12.668,62.268h8.855c-1.925,1.895-1.561,4.085-1.561,6.2,0,4.509-.028,9.017.043,13.524.053,3.371,1.787,5.145,4.61,4.906a3.826,3.826,0,0,0,3.789-3.981c.036-5.661.062-11.326-.062-16.986A13.477,13.477,0,0,0,27.2,62.36h6.181c-.177,2.1-.469,4.181-.5,6.272-.083,4.782.056,9.567-.077,14.347-.128,4.533-2.961,7.385-7.467,7.6a22.866,22.866,0,0,1-5.72-.333,7.479,7.479,0,0,1-5.995-7.328c-.121-5.5-.026-10.995-.139-16.49a24.929,24.929,0,0,0-.81-4.16" transform="translate(11.19 55.004)" fill="#fff"/>
      <path id="Path_31" data-name="Path 31" d="M94.936,74.849c2.93-1.3,3-3.565,2.81-5.944-.183-2.219.738-4.737-2.115-6.46.763-.085,1.154-.16,1.544-.164,3.953-.032,7.908-.026,11.861-.1.993-.017,1.492.181,1.571,1.309.128,1.881.441,3.75.475,5.853-1.691-2.6-4.164-2.416-6.769-2.375v6.185l4.842-.832V80.25c-1.663-1.4-2.48-3.618-5.01-2.853v8.209c2.951.07,5.833.557,8.306-2.251-.431,2.32-.731,4.2-1.166,6.04a1.424,1.424,0,0,1-1.083.812c-4.548-.062-9.1-.2-13.645-.33a6.214,6.214,0,0,1-.844-.213c2.465-1.51,2.015-3.787,2.034-5.932.006-.714-.04-1.431,0-2.143.145-2.573.207-5.106-2.814-6.74" transform="translate(83.86 54.93)" fill="#fff"/>
      <path id="Path_32" data-name="Path 32" d="M69.488,89.748H61.817c1.377-3.7,2.748-7.464,4.179-11.208q2.791-7.3,5.667-14.566c.32-.814.414-1.814,1.757-1.816,1.3,0,1.492.879,1.821,1.74q4,10.444,8.01,20.884c.646,1.672,1.4,3.3,2.136,5.017h-8.53a3.208,3.208,0,0,0,.9-3.776c-.46-1.633-.62-3.352-1.139-4.959a12.676,12.676,0,0,0-1.593-2.529c-.5-.8-1.021-1.6-1.454-2.446a6.22,6.22,0,0,0-.968-1.763c-.576,2.051-1.177,4.094-1.7,6.158-.056.224.363.563.552.855a16.864,16.864,0,0,1,1.205,1.927c.433.934.057,1.384-.983,1.52-3.369.441-4,1.834-2.19,4.961" transform="translate(54.605 54.907)" fill="#fff"/>
      <path id="Path_33" data-name="Path 33" d="M47.258,85.519c2.962.2,5.816.533,8.079-1.908-.331,1.876-.623,3.759-1.032,5.618a1.31,1.31,0,0,1-.964.793c-4.593-.124-9.185-.32-14.02-.507,1.93-1.638,1.5-3.831,1.5-5.921.008-5.714.043-11.426-.058-17.138a23.082,23.082,0,0,0-.846-4.173H53.534c.262,2.175.535,4.448.808,6.722-.111.132-.22.264-.331.4-1.552-2.806-4.044-2.64-6.675-2.465v6.2l4.829-.885v7.863c-1.7-1.377-2.509-3.6-4.906-2.887Z" transform="translate(34.734 55.016)" fill="#fff"/>
      <path id="Path_34" data-name="Path 34" d="M83.158,85.41c3.424.443,4.23.228,7.833-2.055-.262,2.215-.51,4.309-.763,6.445H75.293c2.273-2.356,1.435-5.119,1.482-7.707.092-5,.021-10,.028-15.006,0-1.7.175-3.452-1.426-4.789h9.548c-2.03,1.8-1.761,4.044-1.765,6.211-.011,5.6,0,11.2,0,16.9" transform="translate(66.509 55.03)" fill="#fff"/>
      <path id="Path_35" data-name="Path 35" d="M85.687,62.265h8.675c-2.392,2.874-1.463,6.142-1.537,9.242-.105,4.6-.026,9.209-.026,13.9,2.819.365,5.309.318,7.533-1.731-.473,2.045-.945,4.089-1.4,6.081h-13c.16-2.051.414-3.923.433-5.8q.085-8.893,0-17.788a25.024,25.024,0,0,0-.672-3.908" transform="translate(75.69 55.001)" fill="#fff"/>
      <path id="Path_36" data-name="Path 36" d="M35.851,85.91a2.78,2.78,0,0,1,.874,3.494c-.678,1.362-1.976,1.574-3.362,1.58-3.347.013-3.345.03-3.341-3.256,0-1.853,0-3.7,0-5.678a41.858,41.858,0,0,1,4.324.028c1.827.2,2.365,1.646,1.5,3.833m-3.887,3.251c1.055-.243,1.859-.4,2.637-.646.072-.023.07-.782-.043-.825-.75-.292-1.539-.484-2.465-.751-.049.84-.075,1.313-.128,2.222m.964-3.706,1.239-.812c-.392-.256-.77-.676-1.183-.714-.3-.026-.64.456-.964.712l.908.814" transform="translate(26.519 72.437)" fill="#fff"/>
      <path id="Path_37" data-name="Path 37" d="M57.158,86.545a4.643,4.643,0,0,1-4.669,4.526,4.408,4.408,0,0,1-4.569-4.39,4.751,4.751,0,0,1,4.494-4.763,4.625,4.625,0,0,1,4.744,4.627M52.615,89a2.432,2.432,0,0,0,2.433-2.55,2.34,2.34,0,0,0-2.6-2.324A2.374,2.374,0,0,0,50.08,86.55,2.471,2.471,0,0,0,52.615,89" transform="translate(42.329 72.36)" fill="#fff"/>
      <path id="Path_38" data-name="Path 38" d="M85.014,87.122v3.949H83.165V81.815L88.2,86.06V82.284h2.077v8.972c-1.729-1.537-3.288-2.927-4.848-4.315l-.411.181" transform="translate(73.462 72.27)" fill="#fff"/>
      <path id="Path_39" data-name="Path 39" d="M9.1,85.163c2.785-2.143,13.387-2.141,16.089-.06-1.913,2.013-13.232,2.113-16.089.06" transform="translate(8.034 73.802)" fill="#fff"/>
      <path id="Path_40" data-name="Path 40" d="M45.13,88.871v1.917H39.337V82.065h5.622v1.979c-.908,0-1.821-.056-2.723.03-.307.03-.58.422-.868.648.282.175.55.461.851.5a14.5,14.5,0,0,0,1.9.024v1.816l-2.742.226c-.041.463-.083.923-.141,1.58Z" transform="translate(34.748 72.491)" fill="#fff"/>
      <path id="Path_41" data-name="Path 41" d="M95.653,87.38v1.51h3.833v1.964H93.617V82.041h5.844v1.981h-3.74c.058.959.058.959,2.584,1.337v1.857l-2.652.164" transform="translate(82.695 72.47)" fill="#fff"/>
      <path id="Path_42" data-name="Path 42" d="M116.313,84.851c-2.484,2.115-14.1,2.211-16.8.19,1.081-.5,2.047-1.362,2.968-1.315,4.511.232,9.176-1.049,13.831,1.124" transform="translate(87.904 73.811)" fill="#fff"/>
      <path id="Path_43" data-name="Path 43" d="M94.921,88.007c1.384,1.267,1.264,2.06-.33,2.784a4.641,4.641,0,0,1-5.5-1.337,4.718,4.718,0,0,1-.185-5.518,4.492,4.492,0,0,1,5.373-1.689c.661.305,1.614,1.352,1.482,1.735-.337.981-1.249,1.121-2.266.475a1.956,1.956,0,0,0-2.755.652,2.4,2.4,0,0,0,.083,3.053,2.2,2.2,0,0,0,2.795.689,8.2,8.2,0,0,0,1.3-.842" transform="translate(77.826 72.35)" fill="#fff"/>
      <path id="Path_44" data-name="Path 44" d="M54.044,82.012c1.48,0,2.686-.057,3.883.015A3.011,3.011,0,0,1,60.735,85.1a2.794,2.794,0,0,1-2.8,2.671c-.588.053-1.181.07-1.853.107-.053,1.034-.1,1.945-.149,2.9-1.358.5-1.944.147-1.9-1.339.064-2.4.017-4.8.017-7.428m3.089,4.3c.689-.654,1.068-1.011,1.445-1.367a5.682,5.682,0,0,0-1.46-.883c-.239-.062-.925.5-.895.695.066.443.458.834.91,1.556" transform="translate(47.722 72.425)" fill="#fff"/>
      <path id="Path_45" data-name="Path 45" d="M25.077,90.7c-1.748.589-2.271.038-2.188-1.467.09-1.635.021-3.279.021-5.01-.842-.1-1.526-.185-2.3-.277v-1.9h6.682v1.959l-2.211.177Z" transform="translate(18.202 72.475)" fill="#fff"/>
      <path id="Path_46" data-name="Path 46" d="M68.142,88.9h4.27c.038.689.066,1.215.1,1.891H66.283V82.078h1.859Z" transform="translate(58.55 72.502)" fill="#fff"/>
      <path id="Path_47" data-name="Path 47" d="M34.961,82.043h1.9v6.816h4.1c.038.718.066,1.284.1,1.983h-6.1Z" transform="translate(30.882 72.471)" fill="#fff"/>
      <path id="Path_48" data-name="Path 48" d="M43.536,82.033h6.757v1.983l-2.454.2c0,1.674.038,3.349-.019,5.019-.023.657.429,1.657-.881,1.7s-.927-.944-.966-1.623c-.051-.872-.011-1.752-.015-2.627-.011-2.384-.011-2.384-2.422-2.75Z" transform="translate(38.457 72.463)" fill="#fff"/>
      <path id="Path_49" data-name="Path 49" d="M72.585,82.063v6.78h4.109v2H70.836V82.063Z" transform="translate(62.572 72.489)" fill="#fff"/>
      <path id="Path_50" data-name="Path 50" d="M75.21,82.036h1.842v8.831l-1.842.089Z" transform="translate(66.435 72.465)" fill="#fff"/>
      <path id="Path_51" data-name="Path 51" d="M28.7,81.988c-1.542,3.126-2.934,5.951-4.409,8.942,1.179.036,2.115.5,2.712-.829.356-.795,2.81-.574,3.546.03a12.568,12.568,0,0,0,2.141,1.179c.109-.153.218-.307.328-.461-1.382-2.836-2.763-5.673-4.318-8.861m-.959,5.364,1.025-1.772,1.023,1.772Z" transform="translate(21.454 72.423)" fill="#fff"/>
      <path id="Path_52" data-name="Path 52" d="M65.341,81.988c-1.542,3.126-2.934,5.951-4.409,8.942,1.179.036,2.115.5,2.712-.829.356-.795,2.81-.574,3.546.03a12.569,12.569,0,0,0,2.141,1.179c.109-.153.218-.307.328-.461-1.382-2.836-2.763-5.673-4.318-8.861m-.959,5.364,1.025-1.772,1.023,1.772Z" transform="translate(53.823 72.423)" fill="#fff"/>
      <path id="Path_53" data-name="Path 53" d="M81.737,81.988c-1.542,3.126-2.934,5.951-4.409,8.942,1.179.036,2.115.5,2.712-.829.356-.795,2.81-.574,3.546.03a12.568,12.568,0,0,0,2.141,1.179c.109-.153.218-.307.328-.461-1.382-2.836-2.763-5.673-4.318-8.861m-.959,5.364L81.8,85.58l1.023,1.772Z" transform="translate(68.306 72.423)" fill="#fff"/>
    </g>
  </g>
</svg>
