<svg id="Group_39" data-name="Group 39" xmlns="http://www.w3.org/2000/svg" xmlns:xlink="http://www.w3.org/1999/xlink" width="37.016" height="37" viewBox="0 0 37.016 37">
  <defs>
    <clipPath id="clip-path">
      <rect id="Rectangle_20" data-name="Rectangle 20" width="37.016" height="37" fill="#fff"/>
    </clipPath>
  </defs>
  <g id="Group_38" data-name="Group 38" clip-path="url(#clip-path)">
    <path id="Path_178" data-name="Path 178" d="M0,32.317V4.7c.017-.128.033-.256.052-.384A5.067,5.067,0,0,1,5.03,0Q18.508,0,31.985,0a4.74,4.74,0,0,1,.673.047,4.942,4.942,0,0,1,2.947,1.512,4.844,4.844,0,0,1,1.406,3.433q.009,13.51,0,27.02a4.77,4.77,0,0,1-.042.627,5.068,5.068,0,0,1-3.794,4.229c-.218.053-.441.087-.661.13H20.8q0-6.653,0-13.306c0-.211-.029-.2.2-.2h4.2c.137,0,.137,0,.155-.133q.163-1.247.324-2.495c.109-.844.215-1.688.326-2.532.012-.088-.018-.112-.1-.106-.037,0-.074,0-.111,0H20.951c-.148,0-.148,0-.148-.148,0-1.11,0-2.221,0-3.331a5.04,5.04,0,0,1,.073-.8A1.77,1.77,0,0,1,22.3,12.419a4.3,4.3,0,0,1,1.027-.12q1.379-.006,2.757,0c.082,0,.121-.015.121-.111q0-2.249,0-4.5c0-.078-.025-.109-.1-.115-.572-.042-1.143-.105-1.715-.128q-1.28-.051-2.561-.056a6.985,6.985,0,0,0-1.935.281,5.761,5.761,0,0,0-3.834,3.2,7.793,7.793,0,0,0-.69,3.279c-.012,1.3,0,2.609,0,3.914,0,.166,0,.166-.165.166H10.969c-.159,0-.159,0-.159.155v4.95c0,.025,0,.05,0,.074,0,.058.021.086.08.085.04,0,.08,0,.12,0h4.183c.169,0,.169,0,.169.171v13.2c0,.043,0,.086,0,.13H4.5c-.057-.011-.114-.025-.171-.033A5.07,5.07,0,0,1,.109,33.009c-.047-.228-.073-.461-.109-.692" transform="translate(0 0)" fill="#fff"/>
  </g>
</svg>
