<svg xmlns="http://www.w3.org/2000/svg" xmlns:xlink="http://www.w3.org/1999/xlink" width="36" height="36" viewBox="0 0 36 36">
  <defs>
    <clipPath id="clip-path">
      <rect id="Rectangle_18" data-name="Rectangle 18" width="36" height="36" transform="translate(-0.495)" fill="#fff"/>
    </clipPath>
  </defs>
  <g id="Group_35" data-name="Group 35" transform="translate(0.495)">
    <g id="Group_34" data-name="Group 34" clip-path="url(#clip-path)">
      <path id="Path_173" data-name="Path 173" d="M87.537,70.723a2.756,2.756,0,0,0-.907,4.056,2.271,2.271,0,0,0,2.054.97,2.1,2.1,0,0,0,1.515-.743,2.828,2.828,0,0,0,.04-3.7,2.248,2.248,0,0,0-2.7-.584" transform="translate(-66.393 -54.362)" fill="#fff"/>
      <path id="Path_174" data-name="Path 174" d="M48.657,71a2.652,2.652,0,0,0-1.018,2.381,2.46,2.46,0,0,0,2.139,2.386,2.345,2.345,0,0,0,1.916-.719,2.9,2.9,0,0,0,.256-3.5A2.272,2.272,0,0,0,48.657,71" transform="translate(-36.732 -54.378)" fill="#fff"/>
      <path id="Path_175" data-name="Path 175" d="M27.219,0H8.258A8.259,8.259,0,0,0,0,8.259V27.22a8.259,8.259,0,0,0,8.259,8.259H27.219a8.259,8.259,0,0,0,8.259-8.259V8.259A8.259,8.259,0,0,0,27.219,0m3.621,23.894a.725.725,0,0,1-.361.695c-1,.578-1.98,1.207-3.012,1.726-.967.486-1.993.855-2.991,1.281a.42.42,0,0,1-.6-.191c-.351-.583-.713-1.159-1.073-1.736-.109-.175-.069-.279.122-.358.476-.2.95-.4,1.419-.611a5.759,5.759,0,0,0,.552-.333,3.34,3.34,0,0,1-.274-.242.386.386,0,0,0-.512-.089,16.525,16.525,0,0,1-3.5,1.086,15.892,15.892,0,0,1-9.168-.995c-.514-.209-.532-.21-.942.221a11.235,11.235,0,0,0,2.116,1.107c-.143.249-.274.488-.415.72-.267.44-.543.876-.809,1.317a.272.272,0,0,1-.367.133A21.374,21.374,0,0,1,4.788,24.5a.744.744,0,0,1-.223-.523c-.034-1.048-.08-2.1-.042-3.146a19.151,19.151,0,0,1,1.256-6.081A24.886,24.886,0,0,1,8.322,9.829a1.074,1.074,0,0,1,.455-.377,22.842,22.842,0,0,1,4.833-1.525c.242-.043.4-.016.506.229.134.3.308.587.453.884a.294.294,0,0,0,.328.179c1.148-.057,2.3-.132,3.444-.145.7-.008,1.394.081,2.091.14a.33.33,0,0,0,.395-.2c.142-.309.317-.6.466-.909a.307.307,0,0,1,.373-.2A20.613,20.613,0,0,1,26.589,9.4a1.184,1.184,0,0,1,.472.405,20.868,20.868,0,0,1,3.713,10.034c.113,1.343.052,2.7.066,4.051" transform="translate(0.001 0)" fill="#fff"/>
    </g>
  </g>
</svg>
