<svg id="Group_41" data-name="Group 41" xmlns="http://www.w3.org/2000/svg" xmlns:xlink="http://www.w3.org/1999/xlink" width="37.006" height="37" viewBox="0 0 37.006 37">
  <defs>
    <clipPath id="clip-path">
      <rect id="Rectangle_21" data-name="Rectangle 21" width="37.006" height="37" fill="#fff"/>
    </clipPath>
  </defs>
  <g id="Group_40" data-name="Group 40" clip-path="url(#clip-path)">
    <path id="Path_179" data-name="Path 179" d="M37.006,11.353v14.38c0,.156-.011.311-.012.466,0,.559,0,1.119-.007,1.678-.005.431-.007.862-.037,1.292a9.3,9.3,0,0,1-.349,2,7.836,7.836,0,0,1-2.736,4.061,8.281,8.281,0,0,1-4.372,1.657c-.685.07-1.371.1-2.059.1-1.849,0-3.7.012-5.548.01q-5.351-.006-10.7-.023c-1.13,0-2.262.03-3.39-.075a10.317,10.317,0,0,1-2-.349,7.713,7.713,0,0,1-4.683-3.726A9.05,9.05,0,0,1,.051,28.893c-.032-.5-.034-1-.035-1.5Q0,22.186,0,16.981c0-2.714.018-5.429.029-8.143A11.969,11.969,0,0,1,.283,6.391,7.788,7.788,0,0,1,6.067.358,11.659,11.659,0,0,1,8.908.022Q11.287.009,13.667,0q4.14,0,8.281,0c2,0,4,.018,6,.027A12.769,12.769,0,0,1,30.73.31,7.758,7.758,0,0,1,35.2,3.09a8.459,8.459,0,0,1,1.763,4.982c.033.622.016,1.247.023,1.87q.007.705.016,1.411M4.858,18.62H4.85c0,.694,0,1.388,0,2.082,0,1.342.016,2.684.116,4.023a9.3,9.3,0,0,0,.518,2.524A6.886,6.886,0,0,0,9.5,31.427a9.341,9.341,0,0,0,3.2.645q1.855.072,3.712.088c1.433.014,2.867,0,4.3,0,1.336,0,2.671-.018,4-.118a9.638,9.638,0,0,0,2.412-.478,6.9,6.9,0,0,0,3.918-3.27,8.358,8.358,0,0,0,.98-3.552q.1-1.422.111-2.849c.019-1.6.012-3.2.012-4.8s0-3.2-.118-4.793a9.8,9.8,0,0,0-.459-2.361,6.911,6.911,0,0,0-2.99-3.805A7.924,7.924,0,0,0,25.1,5.014c-.753-.073-1.512-.112-2.269-.128-1.243-.028-2.488-.03-3.732-.035-.95,0-1.9,0-2.852,0-1.326,0-2.653.018-3.976.117a9.5,9.5,0,0,0-2.55.53A6.874,6.874,0,0,0,5.948,8.726a8.341,8.341,0,0,0-.976,3.524q-.091,1.344-.109,2.693c-.018,1.225,0,2.451,0,3.677" transform="translate(0 0.001)" fill="#fff"/>
    <path id="Path_180" data-name="Path 180" d="M49.421,38.277c1.2,0,2.4-.011,3.594,0,.8.01,1.595.044,2.391.092a6.439,6.439,0,0,1,2.361.553,4.459,4.459,0,0,1,2.409,2.7,7.345,7.345,0,0,1,.366,1.94c.136,2.159.1,4.32.1,6.481q0,1.848-.033,3.7a18.613,18.613,0,0,1-.144,2.314,5.517,5.517,0,0,1-.813,2.326,4.546,4.546,0,0,1-2.575,1.878,8.149,8.149,0,0,1-1.831.306c-2.2.131-4.394.087-6.591.091-1.036,0-2.073,0-3.108-.023-.83-.021-1.662-.059-2.489-.131a5.415,5.415,0,0,1-2.412-.757,4.473,4.473,0,0,1-1.937-2.452,7.549,7.549,0,0,1-.364-1.941c-.138-2.192-.1-4.388-.1-6.582,0-.874,0-1.749.013-2.623s.046-1.754.094-2.629a6.617,6.617,0,0,1,.471-2.186A4.441,4.441,0,0,1,41.4,38.805a6.923,6.923,0,0,1,2.082-.438c1.81-.123,3.623-.106,5.435-.106h.5v.015m.031,4.18a7.008,7.008,0,1,0,7,7.013,7,7,0,0,0-7-7.013m8.921-.284a1.637,1.637,0,1,0-1.633,1.638,1.641,1.641,0,0,0,1.633-1.638" transform="translate(-30.945 -30.958)" fill="#fff"/>
    <path id="Path_181" data-name="Path 181" d="M82.187,77.661a4.554,4.554,0,1,1-4.557-4.555,4.551,4.551,0,0,1,4.557,4.555" transform="translate(-59.131 -59.154)" fill="#fff"/>
  </g>
</svg>
