<svg id="Group_37" data-name="Group 37" xmlns="http://www.w3.org/2000/svg" xmlns:xlink="http://www.w3.org/1999/xlink" width="37.003" height="37" viewBox="0 0 37.003 37">
  <defs>
    <clipPath id="clip-path">
      <rect id="Rectangle_19" data-name="Rectangle 19" width="37.003" height="37" fill="#fff"/>
    </clipPath>
  </defs>
  <g id="Group_36" data-name="Group 36" clip-path="url(#clip-path)">
    <path id="Path_176" data-name="Path 176" d="M.019,18.483c0-3.4-.05-6.8.016-10.2A7.982,7.982,0,0,1,7.491.1C8.178.044,8.869.009,9.558.008Q18.828,0,28.1.01a9.347,9.347,0,0,1,4.971,1.2,7.668,7.668,0,0,1,3.745,5.626,16.817,16.817,0,0,1,.178,2.491q.021,9.378,0,18.755a9.161,9.161,0,0,1-1.45,5.374,7.94,7.94,0,0,1-6.185,3.456c-.7.059-1.408.078-2.112.079q-9.14.009-18.28,0a9.485,9.485,0,0,1-4.981-1.174,7.671,7.671,0,0,1-3.8-5.637,16.933,16.933,0,0,1-.179-2.491C-.009,24.62,0,21.552,0,18.483H.019m19.412-3.336c-.122-.157-.212-.269-.3-.383q-2.268-3-4.531-6a.754.754,0,0,0-.682-.339c-1.988.013-3.976.006-5.965.008-.134,0-.269.018-.475.033l8.537,11.159L8.189,28.569c.83,0,1.535-.016,2.238.007a.849.849,0,0,0,.737-.337q2.877-3.312,5.774-6.605c.1-.115.207-.226.328-.359.109.135.2.244.287.357q2.522,3.295,5.038,6.593a.757.757,0,0,0,.676.351c1.931-.015,3.861-.007,5.792-.008.135,0,.271-.017.492-.032L20.669,16.8l7.32-8.364c-.853,0-1.572.014-2.29-.007a.768.768,0,0,0-.66.311c-1.092,1.265-2.2,2.519-3.3,3.776l-2.31,2.636" transform="translate(0 0)" fill="#fff"/>
    <path id="Path_177" data-name="Path 177" d="M76.951,73.136c-.645,0-1.19.01-1.734-.009a.482.482,0,0,1-.308-.189q-5.885-7.676-11.758-15.36a.976.976,0,0,1-.071-.176c.611,0,1.2-.023,1.775.016.142.01.293.206.4.347q4.272,5.593,8.534,11.194,1.426,1.872,2.851,3.744c.085.111.163.227.309.432" transform="translate(-51.463 -46.825)" fill="#fff"/>
  </g>
</svg>
